<svg xmlns="http://www.w3.org/2000/svg" fill="none" viewBox="0 0 170 42" height="42" width="170">
<path fill="black" d="M45.0283 15L62.179 15L62.179 18.2082L55.4261 18.2082L55.4261 36.2934L51.7247 36.2934L51.7247 18.2082L45 18.2082L45.0283 15ZM61.4444 20.877L64.6089 20.877L64.6089 23.858L64.6655 23.858C64.7785 23.4322 64.9763 23.0347 65.2588 22.6372C65.5414 22.2397 65.8804 21.8707 66.3042 21.5584C66.6998 21.2177 67.1519 20.9621 67.6605 20.7634C68.1408 20.5647 68.6494 20.4511 69.158 20.4511C69.5536 20.4511 69.8361 20.4795 69.9774 20.4795C70.1187 20.5079 70.2882 20.5363 70.4295 20.5363L70.4295 23.8013C70.2034 23.7445 69.9491 23.7161 69.6948 23.6877C69.4405 23.6593 69.2145 23.6309 68.9602 23.6309C68.3951 23.6309 67.8583 23.7445 67.3497 23.9716C66.8411 24.1987 66.4173 24.5394 66.0217 24.9653C65.6544 25.4196 65.3436 25.959 65.1175 26.612C64.8915 27.265 64.7785 28.0315 64.7785 28.8833L64.7785 36.2082L61.3879 36.2082L61.4444 20.877ZM85.9697 36.2934L82.6356 36.2934L82.6356 34.1356L82.5791 34.1356C82.1553 34.9306 81.5337 35.5268 80.7143 36.0095C79.8949 36.4921 79.0472 36.7192 78.1996 36.7192C76.1935 36.7192 74.7242 36.2366 73.8201 35.2145C72.9159 34.2208 72.4638 32.6877 72.4638 30.6719L72.4638 20.877L75.8544 20.877L75.8544 30.3312C75.8544 31.694 76.1087 32.6593 76.6456 33.1987C77.1542 33.7666 77.8888 34.0505 78.8212 34.0505C79.5276 34.0505 80.1209 33.9369 80.6013 33.7098C81.0816 33.4826 81.4772 33.1987 81.7597 32.8296C82.0705 32.4606 82.2683 32.0063 82.4096 31.4953C82.5509 30.9842 82.6074 30.4164 82.6074 29.8202L82.6074 20.877L85.998 20.877L85.998 36.2934L85.9697 36.2934ZM91.7337 31.3533C91.8467 32.347 92.2141 33.0284 92.8639 33.4543C93.5138 33.8517 94.3049 34.0505 95.2091 34.0505C95.5199 34.0505 95.8872 34.0221 96.2828 33.9653C96.6783 33.9085 97.0739 33.8233 97.413 33.6814C97.7803 33.5394 98.0628 33.3407 98.2889 33.0568C98.5149 32.7729 98.6279 32.4322 98.5997 32.0063C98.5714 31.5804 98.4302 31.2114 98.1193 30.9274C97.8085 30.6435 97.4412 30.4448 96.9892 30.2461C96.5371 30.0757 96.0002 29.9338 95.4069 29.8202C94.8135 29.7066 94.2202 29.5647 93.5986 29.4227C92.9769 29.2808 92.3553 29.1104 91.762 28.9117C91.1686 28.7129 90.66 28.4574 90.1797 28.0883C89.7276 27.7476 89.3321 27.3218 89.0778 26.7823C88.7952 26.2429 88.6539 25.6183 88.6539 24.8233C88.6539 23.9716 88.8517 23.2902 89.2755 22.7224C89.6711 22.1546 90.208 21.7003 90.8296 21.3596C91.4512 21.0189 92.1576 20.7634 92.9204 20.6215C93.6833 20.4795 94.4179 20.4227 95.0961 20.4227C95.8872 20.4227 96.6501 20.5079 97.3565 20.6782C98.0628 20.8486 98.741 21.1041 99.3061 21.5016C99.8994 21.8707 100.38 22.3817 100.747 22.9779C101.143 23.5741 101.369 24.3123 101.482 25.164L97.9498 25.164C97.7803 24.3407 97.413 23.8013 96.8479 23.5174C96.2545 23.2334 95.6047 23.0915 94.8418 23.0915C94.6157 23.0915 94.3049 23.1199 93.9941 23.1483C93.6551 23.205 93.3725 23.2618 93.0617 23.3754C92.7792 23.489 92.5249 23.6593 92.3271 23.858C92.1293 24.0568 92.0163 24.3407 92.0163 24.6814C92.0163 25.1073 92.1575 25.4196 92.4401 25.6751C92.7226 25.9306 93.09 26.1293 93.5703 26.3281C94.0224 26.4984 94.5592 26.6404 95.1526 26.7539C95.7459 26.8675 96.3675 27.0095 96.9892 27.1514C97.6108 27.2934 98.2041 27.4637 98.7975 27.6625C99.3908 27.8612 99.9277 28.1167 100.38 28.4858C100.832 28.8265 101.227 29.2524 101.51 29.7634C101.792 30.2744 101.934 30.9274 101.934 31.6656C101.934 32.5741 101.736 33.3407 101.312 33.9937C100.888 34.6183 100.351 35.1577 99.7016 35.5552C99.0518 35.9527 98.2889 36.2366 97.4977 36.4353C96.6783 36.6057 95.8872 36.7192 95.0961 36.7192C94.1354 36.7192 93.2312 36.6057 92.4118 36.3785C91.5924 36.1514 90.8578 35.8107 90.2645 35.3849C89.6711 34.9306 89.1908 34.3912 88.8517 33.7098C88.5127 33.0568 88.3149 32.2618 88.2866 31.3249L91.7055 31.3249L91.7055 31.3533L91.7337 31.3533ZM102.894 20.877L105.466 20.877L105.466 16.2208L108.856 16.2208L108.856 20.8486L111.908 20.8486L111.908 23.3754L108.856 23.3754L108.856 31.6088C108.856 31.9779 108.884 32.2618 108.913 32.5457C108.941 32.8013 109.026 33.0284 109.111 33.1987C109.224 33.3691 109.393 33.511 109.591 33.5962C109.817 33.6814 110.099 33.7382 110.495 33.7382C110.721 33.7382 110.975 33.7382 111.201 33.7098C111.427 33.6814 111.682 33.653 111.908 33.5962L111.908 36.2366C111.54 36.2934 111.173 36.3218 110.806 36.3502C110.439 36.4069 110.099 36.4069 109.704 36.4069C108.8 36.4069 108.093 36.3218 107.557 36.1514C107.02 35.9811 106.596 35.7256 106.285 35.4132C105.974 35.0726 105.776 34.6751 105.663 34.1924C105.55 33.7098 105.494 33.1136 105.466 32.489L105.466 23.4038L102.894 23.4038L102.894 20.8202L102.894 20.877ZM114.281 20.877L117.474 20.877L117.474 22.9779L117.531 22.9779C118.011 22.0694 118.661 21.4448 119.508 21.0473C120.356 20.6498 121.26 20.4511 122.277 20.4511C123.492 20.4511 124.538 20.6498 125.442 21.1041C126.346 21.53 127.081 22.0978 127.674 22.8644C128.267 23.6025 128.719 24.4827 129.002 25.4763C129.285 26.47 129.454 27.5489 129.454 28.6561C129.454 29.7066 129.313 30.7003 129.059 31.6656C128.776 32.6309 128.38 33.511 127.844 34.2492C127.307 34.9874 126.629 35.5836 125.781 36.0379C124.933 36.4921 123.973 36.7192 122.842 36.7192C122.362 36.7192 121.854 36.6625 121.373 36.5773C120.893 36.4921 120.413 36.3502 119.96 36.1514C119.508 35.9527 119.085 35.6972 118.717 35.3849C118.322 35.0726 118.011 34.7035 117.757 34.306L117.7 34.306L117.7 42L114.309 42L114.309 20.877L114.281 20.877ZM126.12 28.5994C126.12 27.918 126.035 27.2366 125.837 26.5836C125.668 25.9306 125.385 25.3628 125.018 24.8517C124.651 24.3407 124.199 23.9432 123.69 23.6309C123.153 23.3186 122.532 23.1767 121.854 23.1767C120.441 23.1767 119.367 23.6593 118.632 24.653C117.926 25.6467 117.559 26.9811 117.559 28.6278C117.559 29.4227 117.644 30.1325 117.841 30.7855C118.039 31.4385 118.293 32.0063 118.689 32.489C119.056 32.9716 119.508 33.3407 120.045 33.6246C120.582 33.9085 121.175 34.0505 121.882 34.0505C122.673 34.0505 123.295 33.8801 123.831 33.5678C124.368 33.2555 124.792 32.8296 125.159 32.347C125.498 31.836 125.753 31.2681 125.894 30.6151C126.035 29.9338 126.12 29.2808 126.12 28.5994V28.5994ZM132.082 15L135.472 15L135.472 18.2082L132.082 18.2082L132.082 15ZM132.082 20.877L135.472 20.877L135.472 36.2934L132.082 36.2934L132.082 20.877ZM138.496 15L141.886 15L141.886 36.2934L138.496 36.2934L138.496 15ZM152.228 36.7192C151.013 36.7192 149.911 36.5205 148.95 36.0946C147.989 35.6688 147.198 35.1293 146.52 34.4196C145.87 33.7098 145.362 32.8297 145.023 31.836C144.684 30.8423 144.486 29.735 144.486 28.571C144.486 27.4069 144.655 26.3281 145.023 25.3344C145.362 24.3407 145.87 23.489 146.52 22.7508C147.17 22.041 147.989 21.4732 148.95 21.0757C149.911 20.6782 151.013 20.4511 152.228 20.4511C153.443 20.4511 154.545 20.6498 155.505 21.0757C156.466 21.4732 157.257 22.041 157.935 22.7508C158.585 23.4606 159.094 24.3407 159.433 25.3344C159.772 26.3281 159.969 27.4069 159.969 28.571C159.969 29.7634 159.8 30.8423 159.433 31.836C159.065 32.8297 158.585 33.6814 157.935 34.4196C157.285 35.1293 156.466 35.6972 155.505 36.0946C154.545 36.4921 153.471 36.7192 152.228 36.7192ZM152.228 34.0221C152.962 34.0221 153.64 33.8517 154.177 33.5394C154.742 33.2271 155.166 32.8013 155.533 32.2902C155.901 31.7792 156.155 31.183 156.325 30.5584C156.494 29.9054 156.579 29.2524 156.579 28.571C156.579 27.918 156.494 27.265 156.325 26.612C156.155 25.959 155.901 25.3912 155.533 24.8801C155.166 24.3691 154.714 23.9716 154.177 23.6593C153.612 23.347 152.962 23.1767 152.228 23.1767C151.493 23.1767 150.815 23.347 150.278 23.6593C149.713 23.9716 149.289 24.3975 148.922 24.8801C148.554 25.3912 148.3 25.959 148.131 26.612C147.961 27.265 147.876 27.918 147.876 28.571C147.876 29.2524 147.961 29.9054 148.131 30.5584C148.3 31.2114 148.554 31.7792 148.922 32.2902C149.289 32.8013 149.741 33.2271 150.278 33.5394C150.843 33.8801 151.493 34.0221 152.228 34.0221ZM160.987 20.877L163.558 20.877L163.558 16.2208L166.948 16.2208L166.948 20.8486L170 20.8486L170 23.3754L166.948 23.3754L166.948 31.6088C166.948 31.9779 166.977 32.2618 167.005 32.5457C167.033 32.8013 167.118 33.0284 167.203 33.1987C167.316 33.3691 167.485 33.511 167.683 33.5962C167.909 33.6814 168.192 33.7382 168.587 33.7382C168.813 33.7382 169.068 33.7382 169.294 33.7098C169.52 33.6814 169.774 33.653 170 33.5962L170 36.2366C169.633 36.2934 169.265 36.3218 168.898 36.3502C168.531 36.4069 168.192 36.4069 167.796 36.4069C166.892 36.4069 166.186 36.3218 165.649 36.1514C165.112 35.9811 164.688 35.7256 164.377 35.4133C164.066 35.0726 163.869 34.6751 163.756 34.1924C163.643 33.7098 163.586 33.1136 163.558 32.489L163.558 23.4038L160.987 23.4038L160.987 20.8202L160.987 20.877Z"></path>
<path fill="#00B67A" d="M41 14.9034L25.3361 14.9034L20.5143 1.79341e-06L15.6639 14.9034L-1.3004e-06 14.8748L12.6681 24.0966L7.81767 39L20.4857 29.7782L33.1538 39L28.3319 24.0966L41 14.9034Z"></path>
<path fill="#005128" d="M29 27.5578L27.9038 24L20 30L29 27.5578Z"></path>
</svg>
